HIERARCHY
ROOT Hips
{
	OFFSET	0.00	0.00	0.00
	CHANNELS 6 Xposition Yposition Zposition Zrotation Xrotation Yrotation
	JOINT Spine
	{
		OFFSET	 0.00	0.01	 0.00
		CHANNELS 3 Zrotation Xrotation Yrotation
		JOINT Spine1
		{
			OFFSET	 0.00	 2.45913012437421	 0.00
			CHANNELS 3 Zrotation Xrotation Yrotation
            JOINT Neck
            {
                OFFSET	 0.00	 2.48462964506057	 0.00
                CHANNELS 3 Zrotation Xrotation Yrotation
                JOINT Head
                {
                    OFFSET	 0.00	 0.927524780924562	 0.00
                    CHANNELS 3 Zrotation Xrotation Yrotation
                    End Site 
                    {
                        OFFSET	 0.00	 1.14999962169752	 0.00
                    }
                }
            }
			JOINT LeftShoulder
			{
				OFFSET	 0.00	 2.48462964506057	 0.00
				CHANNELS 3 Zrotation Xrotation Yrotation
				JOINT LeftUpArm
				{
					OFFSET	 0.00	 1.24881979654096	 0.00
					CHANNELS 3 Zrotation Xrotation Yrotation
					JOINT LeftForeArm
					{
						OFFSET	 0.00	2.59758046908119	 0.00
						CHANNELS 3 Zrotation Xrotation Yrotation
						JOINT LeftHand
						{
							OFFSET	 0.00	2.45542024364365	 0.00
							CHANNELS 3 Zrotation Xrotation Yrotation
							JOINT LeftHandThumb 
							{
								OFFSET	 0.00	0.00	 0.00
								CHANNELS 3 Zrotation Xrotation Yrotation
								End Site
								{
									OFFSET	 0.00	0.00	1.00000003353624
								}
							}
							JOINT L_Wrist_End 
							{
								OFFSET	 0.00	0.99999967115358	 0.00
								CHANNELS 3 Zrotation Xrotation Yrotation
								End Site 
								{
									OFFSET	 0.00	 0.00	 0.00
								}
							}
						}
					}
				}
			}
			JOINT RightShoulder
			{
				OFFSET	 0.00	 2.48462964506057	 0.00
				CHANNELS 3 Zrotation Xrotation Yrotation
				JOINT RightUpArm
				{
					OFFSET	 0.00	 1.24881979654096	 0.00
					CHANNELS 3 Zrotation Xrotation Yrotation
					JOINT RightForeArm
					{
						OFFSET	 0.00	2.59758046908119	 0.00
						CHANNELS 3 Zrotation Xrotation Yrotation
						JOINT RightHand
						{
							OFFSET	 0.00	2.45542024364365	 0.00
							CHANNELS 3 Zrotation Xrotation Yrotation
							JOINT RightHandThumb 
							{
								OFFSET	 0.00	0.00	 0.00
								CHANNELS 3 Zrotation Xrotation Yrotation
								End Site
								{
									OFFSET	 0.00	0.00	1.00000003353624
								}
							}
							JOINT R_Wrist_End 
							{
								OFFSET	 0.00	0.99999967115358	 0.00
								CHANNELS 3 Zrotation Xrotation Yrotation
								End Site 
								{
									OFFSET	 0.00	 0.00	 0.00
								}
							}
						}
					}
				}
			}
		}
	}
	JOINT LeftUpLeg
	{
		OFFSET	 1.2719394002717	 0.00	 0.00
		CHANNELS 3 Zrotation Xrotation Yrotation
		JOINT LeftLowLeg
		{
			OFFSET	 0.00	-4.3429100912261	 0.00
			CHANNELS 3 Zrotation Xrotation Yrotation
			JOINT LeftFoot
			{
				OFFSET	 0.00	-4.48767017425826	 0.00
				CHANNELS 3 Zrotation Xrotation Yrotation
				JOINT LeftToeBase
                {
                    OFFSET	 0.00	0.00	 1.51507020887566
                    CHANNELS 3 Zrotation Xrotation Yrotation
                    End Site 
                    {
                        OFFSET	 0.00	0.00	 0.75000010571191
                    }
                }
			}
		}
	}
	JOINT RightUpLeg
	{
		OFFSET	 -1.2719393604653	 0.00	 0.00
		CHANNELS 3 Zrotation Xrotation Yrotation
		JOINT RightLowLeg
		{
			OFFSET	 0.00	-4.3429100912261	 0.00
			CHANNELS 3 Zrotation Xrotation Yrotation
			JOINT RightFoot
			{
				OFFSET	 0.00	-4.48767017425826	 0.00
				CHANNELS 3 Zrotation Xrotation Yrotation
				JOINT RightToeBase
                {
                    OFFSET	 0.00	0.00	 1.51507020887566
                    CHANNELS 3 Zrotation Xrotation Yrotation
                    End Site 
                    {
                        OFFSET	 0.00	0.00	 0.749999965609858
                    }
                }   
			}
		}
	}
}
MOTION 
Frames:	10 
Frame Time: 0.02 
 2.630920104980469 1.6362100219726563 9.819329833984375 -147.667 83.7708 -209.505 2.72537 -8.22979 -2.88124 -0.029747 6.7709 -3.29472 2.92844 35.0193 2.66481 9.77027 -50.0105 8.41451 -92.12437 -11.0664 -5.28092 -11.3416 3.6271 -28.6445 0.0 20.0528 0.0 31.1414 -7.02294 17.8727 0.0 0.0 0.0 0.0 0.0 0.0 98.98568 -10.5889 -0.15944 10.0045 -0.79242 34.0266 0.0 21.2491 0.0 -16.167 -2.36888 -22.4558 0.0 0.0 0.0 0.0 0.0 0.0 3.21869 -5.55921 -4.24887 0.0 8.79103 0.0 10.5857 7.71252 0.0420102 0.0 -37.598 0.0 3.25372 -2.91736 2.988 0.0 7.83645 0.0 8.8905 9.043631 -8.83317 0.0 -27.5983 0.0 
  2.6274099731445313 1.6266400146484374 9.819509887695313 -147.588 83.8449 -209.717 2.77977 -7.96807 -2.82684 -0.173276 6.23073 -3.25405 2.93339 35.4387 2.71721 9.84881 -50.0951 8.46858 -92.06674 -11.1873 -4.95384 -11.2749 3.66913 -28.6773 0.0 20.0375 0.0 31.1889 -7.03917 17.8524 0.0 0.0 0.0 0.0 0.0 0.0 99.03257 -10.61 -0.485237 9.96146 -0.763267 34.0856 0.0 21.2286 0.0 -16.2237 -2.38046 -22.4583 0.0 0.0 0.0 0.0 0.0 0.0 3.23239 -5.35387 -4.05939 0.0 8.68989 0.0 10.5795 7.70919 -0.00831538 0.0 -37.6184 0.0 3.26025 -2.78576 3.14361 0.0 7.8029 0.0 8.8594 9.024179 -8.8779 0.0 -27.5809 0.0 
  2.6248699951171877 1.6220199584960937 9.819390258789063 -147.557 83.8439 -209.711 2.89141 -7.92308 -2.76217 -0.398078 6.06813 -3.21585 3.14113 35.5745 2.50214 9.93758 -50.091 8.57637 -91.93304 -11.0994 -4.81541 -11.2603 3.67778 -28.699 0.0 20.0299 0.0 31.196 -7.0157 17.8281 0.0 0.0 0.0 0.0 0.0 0.0 99.13889 -10.7217 -0.551848 9.95164 -0.774696 34.1194 0.0 21.1985 0.0 -16.2338 -2.3819 -22.4485 0.0 0.0 0.0 0.0 0.0 0.0 3.25054 -5.33367 -4.07335 0.0 8.68908 0.0 10.5893 7.69605 -0.0229849 0.0 -37.604202 0.0 3.28102 -2.73793 3.11215 0.0 7.77112 0.0 8.8549 9.0147705 -8.89849 0.0 -27.5835 0.0 
  2.62322998046875 1.6189100646972656 9.819420166015625 -147.588 83.8443 -209.653 2.88266 -7.93407 -2.77745 -0.391344 6.04487 -3.22945 3.13902 35.6267 2.50408 9.93423 -50.0968 8.56714 -91.91933 -11.1089 -4.7806 -11.2701 3.67165 -28.6608 0.0 20.0339 0.0 31.2064 -6.99363 17.8301 0.0 0.0 0.0 0.0 0.0 0.0 99.09897 -10.7176 -0.544334 9.97224 -0.768965 34.0925 0.0 21.161 0.0 -16.2646 -2.39235 -22.4316 0.0 0.0 0.0 0.0 0.0 0.0 3.25564 -5.32069 -4.10541 0.0 8.6858 0.0 10.5778 7.69666 -0.0232516 0.0 -37.596397 0.0 3.28824 -2.70845 3.10455 0.0 7.75158 0.0 8.83791 9.00964 -8.92046 0.0 -27.5792 0.0 
  2.621300048828125 1.6152699279785157 9.819359741210938 -147.624 83.8447 -209.583 2.86454 -7.96246 -2.78398 -0.357618 6.05746 -3.23156 3.14006 35.6549 2.48808 9.90671 -50.1089 8.54682 -91.92904 -11.0809 -4.77744 -11.2623 3.65166 -28.6058 0.0 20.0355 0.0 31.1584 -7.00365 17.8485 0.0 0.0 0.0 0.0 0.0 0.0 99.06827 -10.7049 -0.530889 9.94791 -0.799197 34.1055 0.0 21.1102 0.0 -16.2353 -2.40242 -22.4449 0.0 0.0 0.0 0.0 0.0 0.0 3.26108 -5.31288 -4.09969 0.0 8.69399 0.0 10.5503 7.68457 -0.0506054 0.0 -37.5978 0.0 3.29628 -2.67515 3.0915 0.0 7.73279 0.0 8.84466 8.99473 -8.93747 0.0 -27.5742 0.0 
  2.619440002441406 1.612169952392578 9.819199829101562 -147.706 83.8466 -209.471 2.74142 -8.05364 -2.84663 -0.135011 6.22755 -3.26495 3.01687 35.5528 2.5915 9.79713 -50.0946 8.45252 -92.04623 -11.1167 -4.90364 -11.2696 3.60547 -28.5265 0.0 20.0851 0.0 31.1618 -7.03287 17.881 0.0 0.0 0.0 0.0 0.0 0.0 98.95057 -10.6462 -0.442131 9.93189 -0.793803 34.1086 0.0 21.0797 0.0 -16.2512 -2.40046 -22.4809 0.0 0.0 0.0 0.0 0.0 0.0 3.25866 -5.30952 -4.14834 0.0 8.70609 0.0 10.5443 7.68195 -0.0247495 0.0 -37.5847 0.0 3.29778 -2.65538 3.07077 0.0 7.73521 0.0 8.86208 8.9709 -8.9341 0.0 -27.5497 0.0 
  2.61760986328125 1.60968994140625 9.81906005859375 -147.785 83.8436 -209.368 2.77117 -7.99523 -2.86365 -0.200545 6.09016 -3.28983 3.03124 35.6089 2.59645 9.81981 -50.0969 8.49034 -92.0031 -11.1639 -4.85069 -11.2888 3.62894 -28.7156 0.0 20.0813 0.0 31.1676 -7.0135 17.9429 0.0 0.0 0.0 0.0 0.0 0.0 98.96318 -10.6252 -0.486867 9.91637 -0.794157 34.1505 0.0 21.094 0.0 -16.4877 -2.39879 -22.5583 0.0 0.0 0.0 0.0 0.0 0.0 3.25755 -5.32374 -4.21764 0.0 8.74039 0.0 10.5433 7.6742 0.0237353 0.0 -37.5711 0.0 3.302 -2.64284 3.08551 0.0 7.73194 0.0 8.90289 8.94762 -8.95024 0.0 -27.5638 0.0 
  2.615690002441406 1.606719970703125 9.8189501953125 -147.77 83.8622 -209.34 2.79821 -7.96434 -2.85907 -0.276411 6.03742 -3.29231 3.10463 35.6424 2.52819 9.84825 -50.0931 8.55117 -91.95529 -11.1311 -4.82264 -11.2949 3.62098 -28.7438 0.0 20.0969 0.0 31.2049 -6.99384 17.9344 0.0 0.0 0.0 0.0 0.0 0.0 98.99158 -10.6604 -0.497616 9.90825 -0.775779 34.276 0.0 21.1029 0.0 -16.497 -2.38133 -22.5637 0.0 0.0 0.0 0.0 0.0 0.0 3.25635 -5.32893 -4.24095 0.0 8.80095 0.0 10.5367 7.65549 0.011105 0.0 -37.5791 0.0 3.30404 -2.59299 3.04971 0.0 7.70909 0.0 8.91017 8.93324 -8.95263 0.0 -27.5635 0.0 
  2.6137200927734376 1.6041900634765625 9.818759765625 -147.646 83.8763 -209.426 2.84309 -7.94807 -2.82322 -0.370054 6.02449 -3.26704 3.22836 35.6257 2.39352 9.89781 -50.0618 8.60805 -91.88919 -11.0651 -4.80742 -11.3014 3.64643 -28.6937 0.0 20.1057 0.0 31.209 -7.00182 17.887 0.0 0.0 0.0 0.0 0.0 0.0 99.03158 -10.7379 -0.485191 9.89709 -0.776993 34.2997 0.0 21.1277 0.0 -16.543 -2.37002 -22.5458 0.0 0.0 0.0 0.0 0.0 0.0 3.26224 -5.35146 -4.25062 0.0 8.90006 0.0 10.5508 7.61049 0.0226277 0.0 -37.554398 0.0 3.32133 -2.55368 3.02658 0.0 7.70516 0.0 8.91429 8.92295 -8.9739 0.0 -27.5326 0.0 
  2.6118099975585936 1.6011599731445312 9.818720092773438 -147.712 83.8779 -209.33 2.81972 -7.98075 -2.83517 -0.348697 6.06123 -3.27378 3.23264 35.6159 2.39043 9.91549 -50.0498 8.60115 -91.89447 -11.0526 -4.79928 -11.2858 3.65767 -28.5838 0.0 20.0826 0.0 31.174 -6.96105 17.9946 0.0 0.0 0.0 0.0 0.0 0.0 99.00899 -10.7131 -0.436786 9.8737 -0.794322 34.2983 0.0 21.1377 0.0 -16.6029 -2.3975 -22.6054 0.0 0.0 0.0 0.0 0.0 0.0 3.26298 -5.37063 -4.23346 0.0 8.95634 0.0 10.5766 7.59388 0.000890014 0.0 -37.583298 0.0 3.32528 -2.5342 3.00135 0.0 7.70541 0.0 8.90245 8.90476 -8.97428 0.0 -27.5287 0.0 
